<?xml version="1.0" encoding="iso-8859-1"?>
<!-- Generator: Adobe Illustrator 19.0.0, SVG Export Plug-In . SVG Version: 6.00 Build 0)  -->
<svg version="1.1" id="Layer_1" xmlns="http://www.w3.org/2000/svg" xmlns:xlink="http://www.w3.org/1999/xlink" x="0px" y="0px"
	 viewBox="0 0 512 512" style="enable-background:new 0 0 512 512;" xml:space="preserve">
<g>
	<g>
		<path style="fill:#F3D55B;" d="M326.621,8.828c-14.566,0-26.483,11.917-26.483,26.483v26.483v17.655v35.31
			c0,19.421-15.89,35.31-35.31,35.31c-19.421,0-35.31-15.89-35.31-35.31V88.276V70.621v-8.828c0-14.566-11.917-26.483-26.483-26.483
			c-14.566,0-26.483,11.917-26.483,26.483v26.483v70.621v256c0,48.755,39.521,88.276,88.276,88.276s88.276-39.521,88.276-88.276
			v-256V79.448V35.31C353.103,20.745,341.186,8.828,326.621,8.828"/>
		<path style="fill:#F3D55B;" d="M123.586,70.621c-9.71,0-17.655,7.945-17.655,17.655v17.655v8.828v70.621
			c0,19.421-15.89,35.31-35.31,35.31s-35.31-15.89-35.31-35.31v-26.483v-8.828v-17.655c0-9.71-7.945-17.655-17.655-17.655
			S0,122.703,0,132.414v26.483v17.655v211.862c0,39,31.62,70.621,70.621,70.621s70.621-31.62,70.621-70.621V176.552v-61.793V88.276
			C141.241,78.566,133.297,70.621,123.586,70.621"/>
		<path style="fill:#F3D55B;" d="M494.345,105.931c-9.71,0-17.655,7.945-17.655,17.655v17.655v8.828v35.31
			c0,9.71-7.945,17.655-17.655,17.655s-17.655-7.945-17.655-17.655v-35.31v-8.828V79.448c0-14.566-11.917-26.483-26.483-26.483
			s-26.483,11.917-26.483,26.483v70.621v26.483v150.069c0,34.127,27.666,61.793,61.793,61.793S512,360.748,512,326.621V185.379
			v-35.31v-26.483C512,113.876,504.055,105.931,494.345,105.931"/>
	</g>
	<g>
		<path style="fill:#D75A4A;" d="M105.931,388.414c0,19.5-15.81,35.31-35.31,35.31s-35.31-15.81-35.31-35.31
			c0-19.5,15.81-35.31,35.31-35.31S105.931,368.914,105.931,388.414"/>
		<path style="fill:#D75A4A;" d="M317.793,414.897c0,29.255-23.711,52.966-52.966,52.966s-52.966-23.711-52.966-52.966
			s23.711-52.966,52.966-52.966S317.793,385.642,317.793,414.897"/>
	</g>
	<g>
		<path style="fill:#E57E25;" d="M273.655,423.724c0,4.873-3.955,8.828-8.828,8.828S256,428.597,256,423.724
			c0-4.873,3.955-8.828,8.828-8.828S273.655,418.851,273.655,423.724"/>
		<path style="fill:#E57E25;" d="M291.31,450.207c0,4.873-3.955,8.828-8.828,8.828c-4.873,0-8.828-3.955-8.828-8.828
			c0-4.873,3.955-8.828,8.828-8.828C287.356,441.379,291.31,445.334,291.31,450.207"/>
		<path style="fill:#E57E25;" d="M256,450.207c0,4.873-3.955,8.828-8.828,8.828c-4.873,0-8.828-3.955-8.828-8.828
			c0-4.873,3.955-8.828,8.828-8.828C252.045,441.379,256,445.334,256,450.207"/>
		<path style="fill:#E57E25;" d="M308.966,423.724c0,4.873-3.955,8.828-8.828,8.828c-4.873,0-8.828-3.955-8.828-8.828
			c0-4.873,3.955-8.828,8.828-8.828C305.011,414.897,308.966,418.851,308.966,423.724"/>
		<path style="fill:#E57E25;" d="M238.345,423.724c0,4.873-3.955,8.828-8.828,8.828s-8.828-3.955-8.828-8.828
			c0-4.873,3.955-8.828,8.828-8.828S238.345,418.851,238.345,423.724"/>
		<path style="fill:#E57E25;" d="M476.69,326.621c0,14.627-11.855,26.483-26.483,26.483c-14.627,0-26.483-11.855-26.483-26.483
			s11.855-26.483,26.483-26.483C464.834,300.138,476.69,311.993,476.69,326.621"/>
		<path style="fill:#E57E25;" d="M273.655,256c0,4.873-3.955,8.828-8.828,8.828S256,260.873,256,256s3.955-8.828,8.828-8.828
			S273.655,251.127,273.655,256"/>
		<path style="fill:#E57E25;" d="M264.828,229.517c-4.882,0-8.828-3.955-8.828-8.828v-17.655c0-4.873,3.946-8.828,8.828-8.828
			s8.828,3.955,8.828,8.828v17.655C273.655,225.562,269.709,229.517,264.828,229.517"/>
		<path style="fill:#E57E25;" d="M264.828,326.621c-4.882,0-8.828-3.955-8.828-8.828V291.31c0-4.873,3.946-8.828,8.828-8.828
			s8.828,3.955,8.828,8.828v26.483C273.655,322.666,269.709,326.621,264.828,326.621"/>
		<path style="fill:#E57E25;" d="M79.448,256c0,4.873-3.955,8.828-8.828,8.828s-8.828-3.955-8.828-8.828s3.955-8.828,8.828-8.828
			S79.448,251.127,79.448,256"/>
		<path style="fill:#E57E25;" d="M70.621,326.621c-4.882,0-8.828-3.955-8.828-8.828V291.31c0-4.873,3.946-8.828,8.828-8.828
			c4.882,0,8.828,3.955,8.828,8.828v26.483C79.448,322.666,75.502,326.621,70.621,326.621"/>
		<path style="fill:#E57E25;" d="M105.931,344.276c-4.882,0-8.828-3.955-8.828-8.828v-35.31c0-4.873,3.946-8.828,8.828-8.828
			c4.882,0,8.828,3.955,8.828,8.828v35.31C114.759,340.321,110.813,344.276,105.931,344.276"/>
		<path style="fill:#E57E25;" d="M105.931,273.655c-4.882,0-8.828-3.955-8.828-8.828v-17.655c0-4.873,3.946-8.828,8.828-8.828
			c4.882,0,8.828,3.955,8.828,8.828v17.655C114.759,269.7,110.813,273.655,105.931,273.655"/>
		<path style="fill:#E57E25;" d="M35.31,291.31c-4.882,0-8.828-3.955-8.828-8.828v-35.31c0-4.873,3.946-8.828,8.828-8.828
			s8.828,3.955,8.828,8.828v35.31C44.138,287.356,40.192,291.31,35.31,291.31"/>
		<path style="fill:#E57E25;" d="M35.31,344.276c-4.882,0-8.828-3.955-8.828-8.828v-17.655c0-4.873,3.946-8.828,8.828-8.828
			s8.828,3.955,8.828,8.828v17.655C44.138,340.321,40.192,344.276,35.31,344.276"/>
		<path style="fill:#E57E25;" d="M308.966,264.828c-4.882,0-8.828-3.955-8.828-8.828v-70.621c0-4.873,3.946-8.828,8.828-8.828
			c4.882,0,8.828,3.955,8.828,8.828V256C317.793,260.873,313.847,264.828,308.966,264.828"/>
		<path style="fill:#E57E25;" d="M308.966,317.793c-4.882,0-8.828-3.955-8.828-8.828V291.31c0-4.873,3.946-8.828,8.828-8.828
			c4.882,0,8.828,3.955,8.828,8.828v17.655C317.793,313.838,313.847,317.793,308.966,317.793"/>
		<path style="fill:#E57E25;" d="M220.69,317.793c-4.882,0-8.828-3.955-8.828-8.828v-70.621c0-4.873,3.946-8.828,8.828-8.828
			s8.828,3.955,8.828,8.828v70.621C229.517,313.838,225.571,317.793,220.69,317.793"/>
		<path style="fill:#E57E25;" d="M220.69,211.862c-4.882,0-8.828-3.955-8.828-8.828v-17.655c0-4.873,3.946-8.828,8.828-8.828
			s8.828,3.955,8.828,8.828v17.655C229.517,207.907,225.571,211.862,220.69,211.862"/>
		<path style="fill:#E57E25;" d="M459.034,238.345c0,4.873-3.955,8.828-8.828,8.828c-4.873,0-8.828-3.955-8.828-8.828
			c0-4.873,3.955-8.828,8.828-8.828C455.08,229.517,459.034,233.472,459.034,238.345"/>
		<path style="fill:#E57E25;" d="M485.517,264.828c0,4.873-3.955,8.828-8.828,8.828c-4.873,0-8.828-3.955-8.828-8.828
			S471.817,256,476.69,256C481.562,256,485.517,259.955,485.517,264.828"/>
		<path style="fill:#E57E25;" d="M432.552,264.828c0,4.873-3.955,8.828-8.828,8.828c-4.873,0-8.828-3.955-8.828-8.828
			s3.955-8.828,8.828-8.828C428.597,256,432.552,259.955,432.552,264.828"/>
	</g>
</g>
<g>
</g>
<g>
</g>
<g>
</g>
<g>
</g>
<g>
</g>
<g>
</g>
<g>
</g>
<g>
</g>
<g>
</g>
<g>
</g>
<g>
</g>
<g>
</g>
<g>
</g>
<g>
</g>
<g>
</g>
</svg>
